<mxfile host="app.diagrams.net" agent="Mozilla/5.0 (Windows NT 10.0; Win64; x64) AppleWebKit/537.36 (KHTML, like Gecko) Chrome/130.0.0.0 Safari/537.36" version="24.8.1">
  <diagram name="Page-1" id="c2y7Wdh1kOfZUy5RU6x0">
    <mxGraphModel dx="4350" dy="1917" grid="1" gridSize="10" guides="1" tooltips="1" connect="1" arrows="1" fold="1" page="1" pageScale="1" pageWidth="850" pageHeight="1100" math="0" shadow="0">
      <root>
        <mxCell id="0" />
        <mxCell id="1" parent="0" />
        <mxCell id="pnA9gHHQdLahKCaeMBaN-1" value="" style="whiteSpace=wrap;html=1;aspect=fixed;" parent="1" vertex="1">
          <mxGeometry x="-210" y="10" width="1140" height="1140" as="geometry" />
        </mxCell>
        <mxCell id="M_lfjX3mtre5tfZZ7c_t-8" value="&lt;span style=&quot;font-size: 18px;&quot;&gt;Handle Data Sending&lt;/span&gt;" style="ellipse;whiteSpace=wrap;html=1;" parent="1" vertex="1">
          <mxGeometry x="140" y="410" width="220" height="70" as="geometry" />
        </mxCell>
        <mxCell id="M_lfjX3mtre5tfZZ7c_t-3" value="Registered User" style="shape=umlActor;verticalLabelPosition=bottom;verticalAlign=top;html=1;outlineConnect=0;" parent="1" vertex="1">
          <mxGeometry x="400" y="40" width="30" height="60" as="geometry" />
        </mxCell>
        <mxCell id="M_lfjX3mtre5tfZZ7c_t-4" value="&lt;font style=&quot;font-size: 18px;&quot;&gt;Share Data&lt;/font&gt;" style="ellipse;whiteSpace=wrap;html=1;" parent="1" vertex="1">
          <mxGeometry x="160" y="220" width="180" height="70" as="geometry" />
        </mxCell>
        <mxCell id="M_lfjX3mtre5tfZZ7c_t-5" value="" style="curved=1;endArrow=classic;html=1;rounded=0;entryX=0;entryY=0.5;entryDx=0;entryDy=0;" parent="1" source="M_lfjX3mtre5tfZZ7c_t-3" target="M_lfjX3mtre5tfZZ7c_t-4" edge="1">
          <mxGeometry width="50" height="50" relative="1" as="geometry">
            <mxPoint x="380" y="80" as="sourcePoint" />
            <mxPoint x="110" y="250" as="targetPoint" />
            <Array as="points">
              <mxPoint x="-10" y="140" />
            </Array>
          </mxGeometry>
        </mxCell>
        <mxCell id="M_lfjX3mtre5tfZZ7c_t-6" value="&lt;span style=&quot;font-size: 18px;&quot;&gt;Receive Data&amp;nbsp;&lt;/span&gt;" style="ellipse;whiteSpace=wrap;html=1;" parent="1" vertex="1">
          <mxGeometry x="500" y="220" width="180" height="70" as="geometry" />
        </mxCell>
        <mxCell id="M_lfjX3mtre5tfZZ7c_t-7" value="" style="curved=1;endArrow=classic;html=1;rounded=0;entryX=1;entryY=0;entryDx=0;entryDy=0;" parent="1" source="M_lfjX3mtre5tfZZ7c_t-3" target="M_lfjX3mtre5tfZZ7c_t-6" edge="1">
          <mxGeometry width="50" height="50" relative="1" as="geometry">
            <mxPoint x="410" y="40" as="sourcePoint" />
            <mxPoint x="740" y="220" as="targetPoint" />
            <Array as="points">
              <mxPoint x="650" y="90" />
            </Array>
          </mxGeometry>
        </mxCell>
        <mxCell id="M_lfjX3mtre5tfZZ7c_t-9" value="&lt;span style=&quot;font-size: 18px;&quot;&gt;Handle Data fetching&lt;/span&gt;" style="ellipse;whiteSpace=wrap;html=1;" parent="1" vertex="1">
          <mxGeometry x="480" y="410" width="220" height="70" as="geometry" />
        </mxCell>
        <mxCell id="M_lfjX3mtre5tfZZ7c_t-10" value="" style="endArrow=classic;html=1;rounded=0;exitX=0.5;exitY=1;exitDx=0;exitDy=0;entryX=0.5;entryY=0;entryDx=0;entryDy=0;" parent="1" source="M_lfjX3mtre5tfZZ7c_t-4" target="M_lfjX3mtre5tfZZ7c_t-8" edge="1">
          <mxGeometry width="50" height="50" relative="1" as="geometry">
            <mxPoint x="460" y="430" as="sourcePoint" />
            <mxPoint x="510" y="380" as="targetPoint" />
          </mxGeometry>
        </mxCell>
        <mxCell id="M_lfjX3mtre5tfZZ7c_t-12" value="" style="endArrow=classic;html=1;rounded=0;exitX=0.5;exitY=1;exitDx=0;exitDy=0;entryX=0.5;entryY=0;entryDx=0;entryDy=0;" parent="1" source="M_lfjX3mtre5tfZZ7c_t-6" target="M_lfjX3mtre5tfZZ7c_t-9" edge="1">
          <mxGeometry width="50" height="50" relative="1" as="geometry">
            <mxPoint x="589.3299999999999" y="290" as="sourcePoint" />
            <mxPoint x="589.3299999999999" y="410" as="targetPoint" />
          </mxGeometry>
        </mxCell>
        <mxCell id="M_lfjX3mtre5tfZZ7c_t-13" value="&lt;span style=&quot;font-size: 18px;&quot;&gt;Manage message queue&lt;/span&gt;" style="ellipse;whiteSpace=wrap;html=1;" parent="1" vertex="1">
          <mxGeometry x="-90" y="720" width="240" height="70" as="geometry" />
        </mxCell>
        <mxCell id="M_lfjX3mtre5tfZZ7c_t-15" value="&lt;span style=&quot;font-size: 18px;&quot;&gt;Interact with IPFS&lt;/span&gt;" style="ellipse;whiteSpace=wrap;html=1;" parent="1" vertex="1">
          <mxGeometry x="280" y="650" width="240" height="70" as="geometry" />
        </mxCell>
        <mxCell id="M_lfjX3mtre5tfZZ7c_t-16" value="" style="curved=1;endArrow=classic;html=1;rounded=0;exitX=0.5;exitY=1;exitDx=0;exitDy=0;entryX=0.5;entryY=0;entryDx=0;entryDy=0;" parent="1" source="M_lfjX3mtre5tfZZ7c_t-8" target="M_lfjX3mtre5tfZZ7c_t-15" edge="1">
          <mxGeometry width="50" height="50" relative="1" as="geometry">
            <mxPoint x="480" y="430" as="sourcePoint" />
            <mxPoint x="530" y="380" as="targetPoint" />
            <Array as="points">
              <mxPoint x="430" y="520" />
            </Array>
          </mxGeometry>
        </mxCell>
        <mxCell id="M_lfjX3mtre5tfZZ7c_t-17" value="&lt;font style=&quot;font-size: 18px;&quot;&gt;Upload Data to IPFS&lt;/font&gt;" style="text;html=1;align=center;verticalAlign=middle;resizable=0;points=[];autosize=1;strokeColor=none;fillColor=none;" parent="1" vertex="1">
          <mxGeometry x="282" y="550" width="190" height="40" as="geometry" />
        </mxCell>
        <mxCell id="M_lfjX3mtre5tfZZ7c_t-18" value="" style="curved=1;endArrow=classic;html=1;rounded=0;exitX=0.5;exitY=0;exitDx=0;exitDy=0;entryX=0.5;entryY=0;entryDx=0;entryDy=0;" parent="1" source="M_lfjX3mtre5tfZZ7c_t-15" target="M_lfjX3mtre5tfZZ7c_t-13" edge="1">
          <mxGeometry width="50" height="50" relative="1" as="geometry">
            <mxPoint x="360" y="750" as="sourcePoint" />
            <mxPoint x="20" y="710" as="targetPoint" />
            <Array as="points">
              <mxPoint x="120" y="600" />
            </Array>
          </mxGeometry>
        </mxCell>
        <mxCell id="M_lfjX3mtre5tfZZ7c_t-19" value="&lt;font style=&quot;font-size: 18px;&quot;&gt;Status=offline store hash in Queue&lt;/font&gt;" style="text;html=1;align=center;verticalAlign=middle;resizable=0;points=[];autosize=1;strokeColor=none;fillColor=none;" parent="1" vertex="1">
          <mxGeometry x="-65" y="640" width="300" height="40" as="geometry" />
        </mxCell>
        <mxCell id="M_lfjX3mtre5tfZZ7c_t-20" value="&lt;span style=&quot;font-size: 18px;&quot;&gt;Notify Receiver&lt;/span&gt;" style="ellipse;whiteSpace=wrap;html=1;" parent="1" vertex="1">
          <mxGeometry x="60" y="1030" width="240" height="70" as="geometry" />
        </mxCell>
        <mxCell id="M_lfjX3mtre5tfZZ7c_t-21" value="" style="curved=1;endArrow=classic;html=1;rounded=0;entryX=0.5;entryY=0;entryDx=0;entryDy=0;" parent="1" source="M_lfjX3mtre5tfZZ7c_t-26" target="M_lfjX3mtre5tfZZ7c_t-20" edge="1">
          <mxGeometry width="50" height="50" relative="1" as="geometry">
            <mxPoint x="270" y="860" as="sourcePoint" />
            <mxPoint x="550" y="750" as="targetPoint" />
            <Array as="points">
              <mxPoint x="140" y="920" />
            </Array>
          </mxGeometry>
        </mxCell>
        <mxCell id="M_lfjX3mtre5tfZZ7c_t-23" value="&lt;font style=&quot;font-size: 18px;&quot;&gt;Send CID via P2P messeage&lt;/font&gt;" style="text;html=1;align=center;verticalAlign=middle;resizable=0;points=[];autosize=1;strokeColor=none;fillColor=none;" parent="1" vertex="1">
          <mxGeometry x="34" y="910" width="260" height="40" as="geometry" />
        </mxCell>
        <mxCell id="M_lfjX3mtre5tfZZ7c_t-24" value="" style="curved=1;endArrow=classic;html=1;rounded=0;exitX=0.5;exitY=1;exitDx=0;exitDy=0;entryX=1;entryY=0.5;entryDx=0;entryDy=0;" parent="1" source="M_lfjX3mtre5tfZZ7c_t-9" target="M_lfjX3mtre5tfZZ7c_t-15" edge="1">
          <mxGeometry width="50" height="50" relative="1" as="geometry">
            <mxPoint x="410" y="550" as="sourcePoint" />
            <mxPoint x="540" y="680" as="targetPoint" />
            <Array as="points">
              <mxPoint x="720" y="610" />
            </Array>
          </mxGeometry>
        </mxCell>
        <mxCell id="M_lfjX3mtre5tfZZ7c_t-25" value="&lt;font style=&quot;font-size: 18px;&quot;&gt;Data fetching&lt;/font&gt;" style="text;html=1;align=center;verticalAlign=middle;resizable=0;points=[];autosize=1;strokeColor=none;fillColor=none;" parent="1" vertex="1">
          <mxGeometry x="590" y="570" width="130" height="40" as="geometry" />
        </mxCell>
        <mxCell id="M_lfjX3mtre5tfZZ7c_t-27" value="" style="curved=1;endArrow=classic;html=1;rounded=0;entryX=0.5;entryY=0;entryDx=0;entryDy=0;" parent="1" target="M_lfjX3mtre5tfZZ7c_t-26" edge="1">
          <mxGeometry width="50" height="50" relative="1" as="geometry">
            <mxPoint x="270" y="860" as="sourcePoint" />
            <mxPoint x="180" y="1030" as="targetPoint" />
            <Array as="points" />
          </mxGeometry>
        </mxCell>
        <mxCell id="M_lfjX3mtre5tfZZ7c_t-26" value="&lt;span style=&quot;font-size: 18px;&quot;&gt;Upload data on IPFS&lt;/span&gt;" style="ellipse;whiteSpace=wrap;html=1;" parent="1" vertex="1">
          <mxGeometry x="150" y="810" width="240" height="70" as="geometry" />
        </mxCell>
        <mxCell id="M_lfjX3mtre5tfZZ7c_t-28" value="" style="curved=1;endArrow=classic;html=1;rounded=0;entryX=0.5;entryY=0;entryDx=0;entryDy=0;exitX=0;exitY=0.5;exitDx=0;exitDy=0;" parent="1" source="M_lfjX3mtre5tfZZ7c_t-15" target="M_lfjX3mtre5tfZZ7c_t-26" edge="1">
          <mxGeometry width="50" height="50" relative="1" as="geometry">
            <mxPoint x="300" y="760" as="sourcePoint" />
            <mxPoint x="570" y="770" as="targetPoint" />
            <Array as="points">
              <mxPoint x="220" y="730" />
            </Array>
          </mxGeometry>
        </mxCell>
        <mxCell id="M_lfjX3mtre5tfZZ7c_t-29" value="&lt;font style=&quot;font-size: 18px;&quot;&gt;Return hash&lt;/font&gt;" style="text;html=1;align=center;verticalAlign=middle;resizable=0;points=[];autosize=1;strokeColor=none;fillColor=none;" parent="1" vertex="1">
          <mxGeometry x="179" y="723" width="120" height="40" as="geometry" />
        </mxCell>
        <mxCell id="M_lfjX3mtre5tfZZ7c_t-30" value="&lt;span style=&quot;font-size: 18px;&quot;&gt;Retrieve data from IPFS&amp;nbsp;&lt;/span&gt;" style="ellipse;whiteSpace=wrap;html=1;" parent="1" vertex="1">
          <mxGeometry x="535" y="840" width="240" height="70" as="geometry" />
        </mxCell>
        <mxCell id="M_lfjX3mtre5tfZZ7c_t-31" value="" style="curved=1;endArrow=classic;html=1;rounded=0;entryX=0.5;entryY=0;entryDx=0;entryDy=0;exitX=0.5;exitY=1;exitDx=0;exitDy=0;" parent="1" source="M_lfjX3mtre5tfZZ7c_t-15" target="M_lfjX3mtre5tfZZ7c_t-30" edge="1">
          <mxGeometry width="50" height="50" relative="1" as="geometry">
            <mxPoint x="430" y="730" as="sourcePoint" />
            <mxPoint x="480" y="680" as="targetPoint" />
            <Array as="points">
              <mxPoint x="690" y="760" />
            </Array>
          </mxGeometry>
        </mxCell>
        <mxCell id="M_lfjX3mtre5tfZZ7c_t-32" value="" style="curved=1;endArrow=classic;html=1;rounded=0;exitX=0.5;exitY=1;exitDx=0;exitDy=0;entryX=0.5;entryY=0;entryDx=0;entryDy=0;" parent="1" source="M_lfjX3mtre5tfZZ7c_t-30" target="M_lfjX3mtre5tfZZ7c_t-33" edge="1">
          <mxGeometry width="50" height="50" relative="1" as="geometry">
            <mxPoint x="470" y="920" as="sourcePoint" />
            <mxPoint x="600" y="980" as="targetPoint" />
            <Array as="points">
              <mxPoint x="670" y="960" />
            </Array>
          </mxGeometry>
        </mxCell>
        <mxCell id="M_lfjX3mtre5tfZZ7c_t-33" value="&lt;span style=&quot;font-size: 18px;&quot;&gt;Download Data&lt;/span&gt;" style="ellipse;whiteSpace=wrap;html=1;" parent="1" vertex="1">
          <mxGeometry x="380" y="1010" width="240" height="70" as="geometry" />
        </mxCell>
        <mxCell id="M_lfjX3mtre5tfZZ7c_t-36" value="&lt;font style=&quot;font-size: 18px;&quot;&gt;Fetch data from IPFS&amp;nbsp;&lt;/font&gt;" style="text;html=1;align=center;verticalAlign=middle;resizable=0;points=[];autosize=1;strokeColor=none;fillColor=none;" parent="1" vertex="1">
          <mxGeometry x="547" y="773" width="200" height="40" as="geometry" />
        </mxCell>
        <mxCell id="M_lfjX3mtre5tfZZ7c_t-37" value="&lt;font style=&quot;font-size: 18px;&quot;&gt;Success&lt;/font&gt;" style="text;html=1;align=center;verticalAlign=middle;resizable=0;points=[];autosize=1;strokeColor=none;fillColor=none;" parent="1" vertex="1">
          <mxGeometry x="554" y="953" width="90" height="40" as="geometry" />
        </mxCell>
      </root>
    </mxGraphModel>
  </diagram>
</mxfile>
